<svg width="2779" height="2779" viewBox="0 0 2779 2779" fill="none" xmlns="http://www.w3.org/2000/svg">
<path d="M2779 1389.5C2779 2156.9 2156.9 2779 1389.5 2779C622.1 2779 0 2156.9 0 1389.5C0 622.1 622.1 0 1389.5 0C2156.9 0 2779 622.1 2779 1389.5Z" fill="url(#paint0_linear_1_2)"/>
<path d="M2119.93 2084.38C2086.47 2120.56 2229.84 1710.7 2039.33 1554.39C2185.87 1947.61 1914.77 2160.1 1870.81 2199.17C1558.19 2370.14 1291.82 2310.76 1184.51 2228.48C1316.4 2164.98 1445.84 2106.37 1626.57 1742.45C1807.31 1288.18 1824.64 1148.96 2093.07 1148.96C2518.04 1261.31 2413.01 1886.55 2119.93 2084.38Z" fill="white" fill-opacity="0.91"/>
<path d="M1648.56 1529.97C1582.61 1678.95 1572.84 1718.03 1480.03 1879.23C1135.66 1671.63 874.329 1261.31 815.713 829.013C1052.62 814.359 1172.3 982.882 1201.61 1017.07C1198.1 1017.07 1050.18 936.477 1020.87 965.785C1309.07 1092.79 1365.24 1471.35 1648.56 1529.97Z" fill="white"/>
<path d="M1443.4 1923.19C1267.55 2201.62 1069.72 2179.64 962.254 2116.13C879.894 2011.11 892.426 1759.55 898.753 1632.55C857.233 1678.95 835.252 1859.69 876.974 2069.73C674.056 1869.46 742.442 1549.51 732.673 1488.45C715.576 1488.45 659.402 1654.53 698.48 1859.69C468.898 1454.26 711.681 1177.2 698.48 1136.75C649.633 1148.96 603.228 1212.46 539.727 1464.03C512.861 977.997 664.287 938.92 649.633 897.4C534.842 963.343 464.014 963.343 402.955 963.343C498.207 954.288 617.882 863.207 664.287 843.668C649.632 653.164 622.767 604.317 686.268 472.43C781.52 1359 1052.62 1700.93 1443.4 1923.19Z" fill="white"/>
<defs>
<linearGradient id="paint0_linear_1_2" x1="660" y1="2610" x2="2162.5" y2="235" gradientUnits="userSpaceOnUse">
<stop offset="0.122957" stop-color="#520B8A"/>
<stop offset="1" stop-color="#6200AE" stop-opacity="0.43"/>
</linearGradient>
</defs>
</svg>
